<svg width="36" height="36" viewBox="0 0 36 36" fill="none" xmlns="http://www.w3.org/2000/svg">
<g id="mdi:robot-confused-outline">
<path id="Vector" d="M28.5 12H30V13.5H28.5V12ZM30 7.5H28.5V10.5H30V9H30.75C31.17 9 31.5 8.67 31.5 8.25V5.25C31.5 4.83 31.17 4.5 30.75 4.5H27V6H30V7.5ZM25.5 4.5H24V10.5H25.5V4.5ZM20.25 23.25C20.25 24.0457 20.5661 24.8087 21.1287 25.3713C21.6913 25.9339 22.4544 26.25 23.25 26.25C24.0456 26.25 24.8087 25.9339 25.3713 25.3713C25.9339 24.8087 26.25 24.0457 26.25 23.25C26.25 21.585 24.915 20.25 23.25 20.25C21.585 20.25 20.25 21.6 20.25 23.25ZM25.5 12H24V13.5H25.5V12ZM33 21H31.5C31.5 18.75 30.795 16.695 29.61 15H25.455C27.285 16.365 28.5 18.54 28.5 21V24H31.5V25.5H28.5V30H7.5V25.5H4.5V24H7.5V21C7.5 16.86 10.86 13.5 15 13.5H21C21.51 13.5 22.02 13.56 22.5 13.65V10.62C22.005 10.545 21.51 10.5 21 10.5H19.5V8.595C19.9562 8.33163 20.335 7.9528 20.5983 7.49659C20.8616 7.04039 21.0001 6.5229 21 5.99616C20.9999 5.46941 20.861 4.952 20.5975 4.49593C20.334 4.03986 19.955 3.66122 19.4987 3.39808C19.0424 3.13494 18.5248 2.99659 17.9981 2.99693C17.4713 2.99726 16.954 3.13628 16.498 3.4C16.042 3.66372 15.6635 4.04285 15.4006 4.49926C15.1376 4.95566 14.9995 5.47326 15 6C15 7.11 15.6 8.085 16.5 8.595V10.5H15C9.195 10.5 4.5 15.195 4.5 21H3C2.175 21 1.5 21.675 1.5 22.5V27C1.5 27.825 2.175 28.5 3 28.5H4.5V30C4.5 30.7957 4.81607 31.5587 5.37868 32.1213C5.94129 32.6839 6.70435 33 7.5 33H28.5C30.165 33 31.5 31.665 31.5 30V28.5H33C33.825 28.5 34.5 27.825 34.5 27V22.5C34.5 21.675 33.825 21 33 21ZM12.75 20.25C11.1 20.25 9.75 21.6 9.75 23.25C9.75 24.9 11.1 26.25 12.75 26.25C14.4 26.25 15.75 24.915 15.75 23.25C15.75 21.585 14.415 20.25 12.75 20.25Z" fill="#444444"/>
</g>
</svg>
