<svg width="32" height="32" viewBox="0 0 32 32" fill="none" xmlns="http://www.w3.org/2000/svg">
<g id="fluent:approvals-app-32-filled" clip-path="url(#clip0_236_2)">
<path id="Vector" d="M15.629 0.512005C15.367 0.212576 14.9967 0.0295026 14.5997 0.00306C14.2027 -0.0233826 13.8114 0.108971 13.512 0.371005C13.2126 0.633039 13.0295 1.00329 13.0031 1.4003C12.9766 1.79732 13.109 2.18858 13.371 2.488L14.746 4.06001C8.156 4.69001 3 10.243 3 17C3 24.18 8.82 30 16 30C23.18 30 29 24.18 29 17V16.5C29 16.1022 28.842 15.7206 28.5607 15.4393C28.2794 15.158 27.8978 15 27.5 15C27.1022 15 26.7206 15.158 26.4393 15.4393C26.158 15.7206 26 16.1022 26 16.5V17C26 22.523 21.523 27 16 27C10.477 27 6 22.523 6 17C6 11.949 9.745 7.77201 14.61 7.09601L13.371 8.512C13.2413 8.66027 13.142 8.83263 13.0788 9.01926C13.0157 9.20589 12.99 9.40313 13.0031 9.59971C13.0295 9.99672 13.2126 10.367 13.512 10.629C13.8114 10.891 14.2027 11.0234 14.5997 10.997C14.9967 10.9705 15.367 10.7874 15.629 10.488L19.129 6.48801C19.3684 6.21454 19.5003 5.86345 19.5003 5.50001C19.5003 5.13656 19.3684 4.78547 19.129 4.51201L15.629 0.512005ZM22.609 12.491C22.7416 12.6367 22.8441 12.8071 22.9109 12.9924C22.9776 13.1778 23.0072 13.3744 22.9979 13.5712C22.9886 13.768 22.9406 13.961 22.8568 14.1392C22.7729 14.3175 22.6547 14.4774 22.509 14.61L17.009 19.61C16.7237 19.8693 16.3494 20.0088 15.964 19.9995C15.5785 19.9901 15.2115 19.8328 14.939 19.56L12.439 17.06C12.1659 16.777 12.0149 16.398 12.0185 16.0047C12.0221 15.6114 12.18 15.2353 12.4583 14.9573C12.7365 14.6793 13.1128 14.5217 13.5061 14.5185C13.8994 14.5153 14.2782 14.6666 14.561 14.94L16.049 16.428L20.491 12.39C20.6368 12.2575 20.8072 12.155 20.9926 12.0884C21.178 12.0217 21.3746 11.9922 21.5714 12.0016C21.7682 12.011 21.9612 12.059 22.1394 12.143C22.3176 12.227 22.4775 12.3452 22.61 12.491" fill="white
"/>
</g>
<defs>
<clipPath id="clip0_236_2">
<rect width="32" height="32" fill="white"/>
</clipPath>
</defs>
</svg>
