<svg width="24" height="24" viewBox="0 0 24 24" fill="none" xmlns="http://www.w3.org/2000/svg">
<g id="mdi:content-save-edit-outline">
<path id="Vector" d="M4 19H10V21H4C3.46957 21 2.96086 20.7893 2.58579 20.4142C2.21071 20.0391 2 19.5304 2 19V5C2 4.46957 2.21071 3.96086 2.58579 3.58579C2.96086 3.21071 3.46957 3 4 3H16L20 7V9.12L18 11.12V7.83L15.17 5H4V19ZM14 10V6H5V10H14ZM20.42 12.3C20.3714 12.2475 20.3127 12.2053 20.2474 12.1761C20.1821 12.1469 20.1115 12.1312 20.04 12.13C19.9 12.13 19.76 12.19 19.65 12.3L18.65 13.3L20.7 15.35L21.7 14.35C21.92 14.14 21.92 13.79 21.7 13.58L20.42 12.3ZM12 19.94V22H14.06L20.12 15.93L18.07 13.88L12 19.94ZM14 15C14 13.34 12.66 12 11 12C9.34 12 8 13.34 8 15C8 16.66 9.34 18 11 18H11.13L14 15.13V15Z" fill="white"/>
</g>
</svg>
