<svg width="16" height="16" viewBox="0 0 16 16" fill="none" xmlns="http://www.w3.org/2000/svg">
<g id="mdi:thumb-up-outline">
<path id="Vector" d="M3.33333 6V14H0.666668V6H3.33333ZM6 14C5.64638 14 5.30724 13.8595 5.05719 13.6095C4.80714 13.3594 4.66667 13.0203 4.66667 12.6667V6C4.66667 5.63334 4.81333 5.3 5.06 5.06L9.44667 0.666672L10.1533 1.37334C10.3333 1.55334 10.4467 1.8 10.4467 2.07334L10.4267 2.28667L9.79333 5.33334H14C14.3536 5.33334 14.6928 5.47381 14.9428 5.72386C15.1929 5.97391 15.3333 6.31305 15.3333 6.66667V8C15.3333 8.17334 15.3 8.33334 15.24 8.48667L13.2267 13.1867C13.0267 13.6667 12.5533 14 12 14H6ZM6 12.6667H12.02L14 8V6.66667H8.14L8.89334 3.12L6 6.02V12.6667Z" fill="white"/>
</g>
</svg>