<svg width="16" height="16" viewBox="0 0 16 16" fill="none" xmlns="http://www.w3.org/2000/svg">
<g id="mdi:thumb-down-outline">
<path id="Vector" d="M12.6667 10V2H15.3333V10H12.6667ZM10 2C10.3536 2 10.6928 2.14048 10.9428 2.39052C11.1929 2.64057 11.3333 2.97971 11.3333 3.33333V10C11.3333 10.3667 11.1867 10.7 10.94 10.94L6.55333 15.3333L5.84666 14.6267C5.66666 14.4467 5.55333 14.2 5.55333 13.92L5.57333 13.7133L6.20666 10.6667H2C1.64638 10.6667 1.30724 10.5262 1.05719 10.2761C0.80714 10.0261 0.666664 9.68695 0.666664 9.33333V8C0.666664 7.82667 0.699997 7.66667 0.759997 7.51333L2.77333 2.81333C2.97333 2.33333 3.44666 2 4 2H10ZM10 3.33333H3.98L2 8V9.33333H7.85333L7.1 12.88L10 9.98V3.33333Z" fill="black"/>
</g>
</svg>