<svg width="16" height="10" viewBox="0 0 16 10" fill="none" xmlns="http://www.w3.org/2000/svg">
<path id="Token" d="M1.77778 0C0.797222 0 0 0.747396 0 1.66667V3.33333C0 3.5625 0.205556 3.74219 0.436111 3.81771C0.958333 3.98698 1.33333 4.45312 1.33333 5C1.33333 5.54688 0.958333 6.01302 0.436111 6.18229C0.205556 6.25781 0 6.4375 0 6.66667V8.33333C0 9.2526 0.797222 10 1.77778 10H14.2222C15.2028 10 16 9.2526 16 8.33333V6.66667C16 6.4375 15.7944 6.25781 15.5639 6.18229C15.0417 6.01302 14.6667 5.54688 14.6667 5C14.6667 4.45312 15.0417 3.98698 15.5639 3.81771C15.7944 3.74219 16 3.5625 16 3.33333V1.66667C16 0.747396 15.2028 0 14.2222 0H1.77778ZM3.55556 2.91667V7.08333C3.55556 7.3125 3.75556 7.5 4 7.5H12C12.2444 7.5 12.4444 7.3125 12.4444 7.08333V2.91667C12.4444 2.6875 12.2444 2.5 12 2.5H4C3.75556 2.5 3.55556 2.6875 3.55556 2.91667ZM2.66667 2.5C2.66667 2.03906 3.06389 1.66667 3.55556 1.66667H12.4444C12.9361 1.66667 13.3333 2.03906 13.3333 2.5V7.5C13.3333 7.96094 12.9361 8.33333 12.4444 8.33333H3.55556C3.06389 8.33333 2.66667 7.96094 2.66667 7.5V2.5Z" fill="white"/>
</svg>
